<svg data-v-423bf9ae="" xmlns="http://www.w3.org/2000/svg" viewBox="0 0 182.151398107198 60" class="font"><!----><!----><!----><g data-v-423bf9ae="" id="17cf2622-7a37-49d7-a836-866980650530" fill="#04628a" transform="matrix(3.4149117469787598,0,0,3.4149117469787598,-2.2879889011383057,-8.40068244934082)"><path d="M3.97 8.04Q3.50 8.04 3.13 8.33Q2.76 8.62 2.76 9.14Q2.76 9.65 3.10 10.09Q3.44 10.54 3.93 10.89Q4.42 11.24 4.93 11.61L4.93 11.61Q6.10 12.47 6.10 13.47Q6.10 14.46 5.31 15.09Q4.51 15.71 3.27 15.71Q2.03 15.71 1.35 15.22Q0.67 14.73 0.67 14.06Q0.67 13.40 1.01 13.02Q1.34 12.64 1.82 12.64L1.82 12.64Q2.07 12.64 2.30 12.75L2.30 12.75Q1.99 13.15 1.99 13.68Q1.99 14.21 2.32 14.57Q2.65 14.94 3.23 14.94Q3.81 14.94 4.21 14.64Q4.62 14.34 4.62 13.87Q4.62 13.41 4.38 13.06Q4.14 12.71 3.79 12.46Q3.43 12.21 3.01 11.90Q2.59 11.59 2.23 11.29Q1.88 10.99 1.64 10.54Q1.40 10.08 1.40 9.53L1.40 9.53Q1.40 8.54 2.16 7.90Q2.91 7.27 4.06 7.27Q5.21 7.27 5.74 7.74Q6.27 8.22 6.27 8.81Q6.27 9.41 5.98 9.79Q5.68 10.18 5.22 10.18L5.22 10.18Q5.00 10.18 4.70 10.05L4.70 10.05Q5.07 9.60 5.07 9.09Q5.07 8.57 4.75 8.30Q4.44 8.04 3.97 8.04ZM9.80 11.10Q10.26 9.52 11.22 8.44Q12.18 7.35 13.02 7.35Q13.86 7.35 14.21 7.86Q14.56 8.37 14.56 9.25Q14.56 10.12 14.29 11.70Q14.01 13.29 14.01 14.01Q14.01 14.73 14.20 15.06Q14.38 15.39 14.81 15.62L14.81 15.62Q14.63 15.64 14.29 15.64L14.29 15.64Q13.40 15.64 12.97 15.27Q12.54 14.90 12.54 14L12.54 14Q12.54 13.48 12.82 11.91Q13.10 10.33 13.10 9.59L13.10 9.59Q13.10 8.67 12.46 8.67L12.46 8.67Q12.08 8.67 11.62 9.07Q11.16 9.46 10.73 10.14Q10.30 10.82 10.02 11.87Q9.73 12.91 9.73 13.92Q9.73 14.94 9.81 15.43L9.81 15.43Q9.48 15.46 9.44 15.46L9.44 15.46Q8.78 15.46 8.46 15.18Q8.15 14.90 8.15 14.30Q8.15 13.71 8.40 12.01L8.40 12.01Q9.14 6.80 9.14 4.10L9.14 4.10Q9.14 2.88 8.97 2.46L8.97 2.46Q9.79 2.76 10.12 3.33Q10.44 3.91 10.44 4.91L10.44 4.91Q10.44 5.61 10.17 7.85Q9.90 10.09 9.80 11.10L9.80 11.10ZM20.38 8.08L20.38 8.08Q19.54 8.08 18.96 9.04Q18.38 10.01 18.19 11.31L18.19 11.31L18.58 11.31Q19.32 11.31 19.87 11.10Q20.41 10.89 20.71 10.56L20.71 10.56Q21.27 9.91 21.27 9.10L21.27 9.10Q21.27 8.64 21.05 8.36Q20.83 8.08 20.38 8.08ZM22.36 13.75Q21.71 14.80 20.94 15.22Q20.17 15.64 19.16 15.64Q18.14 15.64 17.39 14.74Q16.63 13.85 16.63 12.22L16.63 12.22Q16.63 10.37 17.63 8.92L17.63 8.92Q18.12 8.22 18.91 7.78Q19.70 7.35 20.65 7.35L20.65 7.35Q22.75 7.35 22.75 9.38L22.75 9.38Q22.75 10.60 21.80 11.29Q20.86 11.98 19.61 11.98L19.61 11.98Q18.79 11.98 18.13 11.83L18.13 11.83Q18.12 11.97 18.12 12.26L18.12 12.26Q18.12 14.74 19.59 14.74L19.59 14.74Q20.97 14.74 21.84 13.37L21.84 13.37Q22.36 13.44 22.36 13.75L22.36 13.75ZM26.21 10.88Q26.71 9.06 27.42 8.20Q28.13 7.34 28.74 7.34Q29.34 7.34 29.65 7.79Q29.96 8.25 29.96 8.95Q29.96 9.65 29.60 10.16Q29.23 10.67 28.53 10.67L28.53 10.67Q28.31 10.67 28.18 10.64L28.18 10.64Q28.66 9.95 28.66 9.24L28.66 9.24Q28.66 8.74 28.25 8.74L28.25 8.74Q27.93 8.74 27.57 9.11Q27.20 9.49 26.87 10.16Q26.53 10.84 26.31 11.91Q26.08 12.99 26.08 14.24L26.08 14.24Q26.08 14.38 26.15 15.43L26.15 15.43Q25.79 15.46 25.73 15.46L25.73 15.46Q24.50 15.46 24.50 14.25L24.50 14.25Q24.50 13.97 24.79 12.10Q25.09 10.22 25.09 9.11Q25.09 7.99 24.85 7.06L24.85 7.06Q25.68 7.38 26.01 7.97Q26.33 8.57 26.33 9.36Q26.33 10.15 26.21 10.88L26.21 10.88ZM32.80 10.37Q33.38 9.07 34.25 8.38Q35.13 7.69 35.99 7.69Q36.85 7.69 37.41 8.38Q37.97 9.07 37.97 10.39L37.97 10.39Q37.97 12.47 36.87 13.95Q35.77 15.43 34.23 15.43L34.23 15.43Q33.68 15.43 33.11 15.20L33.11 15.20Q34.16 14.99 34.95 14.13Q35.74 13.27 36.10 12.29Q36.46 11.30 36.46 10.51Q36.46 9.72 36.18 9.30Q35.90 8.88 35.38 8.88L35.38 8.88Q34.41 8.88 33.66 9.95Q32.90 11.02 32.49 12.85Q32.09 14.69 32.09 16.64Q32.09 18.59 32.37 20.03L32.37 20.03Q31.51 19.99 31.02 19.66Q30.53 19.32 30.53 18.41L30.53 18.41Q30.53 18.07 30.96 14.86Q31.39 11.65 31.39 9.91Q31.39 8.18 31.18 6.99L31.18 6.99Q32.10 7.25 32.45 8.07Q32.80 8.89 32.80 10.37L32.80 10.37ZM45.04 7.32L45.04 7.32Q46.24 7.32 46.24 8.57L46.24 8.57Q46.24 8.79 45.98 10.54Q45.71 12.28 45.71 13.52Q45.71 14.77 45.98 15.72L45.98 15.72Q45.12 15.39 44.79 14.77Q44.46 14.15 44.46 13.24L44.46 13.24Q44.46 12.89 44.62 11.66L44.62 11.66Q44.20 13.26 43.32 14.34Q42.43 15.43 41.68 15.43L41.68 15.43Q40.08 15.43 40.08 13.10L40.08 13.10Q40.08 12.33 40.31 10.96Q40.54 9.58 40.54 8.86Q40.54 8.15 40.35 7.42L40.35 7.42Q41.24 7.42 41.69 7.73Q42.14 8.04 42.14 8.92L42.14 8.92Q42.14 9.39 41.85 10.88Q41.55 12.36 41.55 13.08L41.55 13.08Q41.55 14.11 42.20 14.11L42.20 14.11Q42.73 14.11 43.31 13.28Q43.89 12.45 44.28 11.12Q44.67 9.79 44.67 8.48L44.67 8.48Q44.67 7.90 44.59 7.35L44.59 7.35Q44.90 7.32 45.04 7.32ZM50.26 10.88Q50.76 9.06 51.47 8.20Q52.18 7.34 52.79 7.34Q53.40 7.34 53.70 7.79Q54.01 8.25 54.01 8.95Q54.01 9.65 53.65 10.16Q53.28 10.67 52.58 10.67L52.58 10.67Q52.36 10.67 52.23 10.64L52.23 10.64Q52.71 9.95 52.71 9.24L52.71 9.24Q52.71 8.74 52.30 8.74L52.30 8.74Q51.98 8.74 51.62 9.11Q51.25 9.49 50.92 10.16Q50.58 10.84 50.36 11.91Q50.13 12.99 50.13 14.24L50.13 14.24Q50.13 14.38 50.20 15.43L50.20 15.43Q49.84 15.46 49.78 15.46L49.78 15.46Q48.55 15.46 48.55 14.25L48.55 14.25Q48.55 13.97 48.85 12.10Q49.14 10.22 49.14 9.11Q49.14 7.99 48.90 7.06L48.90 7.06Q49.73 7.38 50.06 7.97Q50.39 8.57 50.39 9.36Q50.39 10.15 50.26 10.88L50.26 10.88Z"></path></g><!----><!----></svg>